<!DOCTYPE svg PUBLIC "-//W3C//DTD SVG 1.1//EN" "http://www.w3.org/Graphics/SVG/1.1/DTD/svg11.dtd">
<!-- Uploaded to: SVG Repo, www.svgrepo.com, Transformed by: SVG Repo Mixer Tools -->
<svg width="800px" height="800px" viewBox="-6.24 -6.24 60.48 60.48" xmlns="http://www.w3.org/2000/svg" fill="#000000" stroke="#000000" stroke-width="3.936">
<g id="SVGRepo_bgCarrier" stroke-width="0" transform="translate(0,0), scale(1)">
<path transform="translate(-6.24, -6.24), scale(3.7800000000000002)" fill="#ffea00" d="M9.166.33a2.25 2.25 0 00-2.332 0l-5.25 3.182A2.25 2.25 0 00.5 5.436v5.128a2.25 2.25 0 001.084 1.924l5.25 3.182a2.25 2.25 0 002.332 0l5.25-3.182a2.25 2.25 0 001.084-1.924V5.436a2.25 2.25 0 00-1.084-1.924L9.166.33z" strokewidth="0"/>
</g>
<g id="SVGRepo_tracerCarrier" stroke-linecap="round" stroke-linejoin="round" stroke="#CCCCCC" stroke-width="0.9600000000000002"/>
<g id="SVGRepo_iconCarrier"> <defs> <style>.c{fill:none;stroke:#000000;stroke-linecap:round;stroke-linejoin:round;}</style> </defs> <g id="a"> <g> <path class="c" d="m21.9428,11.85c-3.3479,0-6.0619,2.7199-6.0619,6.075h0c0,3.3551,2.714,6.075,6.0619,6.075h4.1145c3.3479,0,6.0619,2.7199,6.0619,6.075h0c0,3.3551-2.714,6.075-6.0619,6.075"/> <path class="c" d="m31.5416,13.9002c-1.6743-1.4059-3.482-2.0502-7.5416-2.0502h-2.0572"/> <path class="c" d="m16.4584,34.0998c1.6743,1.4059,3.482,2.0502,7.5416,2.0502h2.0572"/> </g> </g> <g id="b"> <circle class="c" cx="24" cy="24" r="21.5"/> </g> </g>
</svg>